<svg width="14" height="16" viewBox="0 0 14 16" fill="none" xmlns="http://www.w3.org/2000/svg">
<path d="M9.44986 14.0016C9.21763 15.1419 8.20912 16 7.00019 16C5.79126 16 4.78275 15.1419 4.55052 14.0016H9.44986ZM6.99783 0C10.1468 0 12.7417 2.33488 12.9823 5.3554L12.9957 5.57762L13.0002 5.80214L12.9992 9.408L13.9529 11.9951L13.9786 12.0796L13.994 12.1664L13.9992 12.2546C13.9992 12.5697 13.8035 12.845 13.4773 12.9618L13.3638 12.9947L13.2492 13.0046H0.751544C0.663047 13.0046 0.575248 12.9889 0.49221 12.9583C0.205309 12.8526 0.0165467 12.5865 0.00976562 12.2422L0.0143604 12.1247L0.0478067 11.9952L0.99919 9.411L1.00028 5.79281L1.00458 5.56824C1.12719 2.45115 3.77122 0 6.99783 0Z" fill="white"/>
</svg>
